<?xml version="1.0" standalone="no"?>
<!DOCTYPE svg PUBLIC "-//W3C//DTD SVG 20010904//EN"
 "http://www.w3.org/TR/2001/REC-SVG-20010904/DTD/svg10.dtd">
<svg version="1.0" xmlns="http://www.w3.org/2000/svg"
 width="500.000000pt" height="500.000000pt" viewBox="0 0 500.000000 500.000000"
 preserveAspectRatio="xMidYMid meet">

<g transform="translate(0.000000,500.000000) scale(0.100000,-0.100000)"
fill="#FFFFFF" stroke="none">
<path d="M2338 3485 c-397 -67 -715 -364 -815 -761 -26 -106 -24 -341 5 -458
24 -96 90 -245 143 -323 134 -196 349 -350 578 -411 83 -21 117 -25 246 -25
131 0 163 3 250 27 173 46 324 129 445 248 318 308 397 768 200 1163 -195 394
-621 612 -1052 540z m402 -80 c321 -85 581 -347 667 -672 32 -124 37 -327 10
-435 -60 -242 -199 -444 -393 -574 -173 -115 -317 -158 -529 -158 -161 0 -253
20 -392 84 -105 49 -161 88 -252 174 -182 176 -275 383 -288 646 -11 242 74
475 240 655 163 178 342 271 592 309 72 11 252 -4 345 -29z"/>
<path d="M2102 2754 c-46 -35 -70 -59 -65 -67 14 -24 535 -722 548 -736 12
-12 49 13 252 164 131 97 240 181 241 186 4 11 -75 119 -86 119 -4 0 -82 -56
-174 -124 l-167 -125 -227 307 c-125 169 -232 312 -238 319 -8 8 -30 -3 -84
-43z"/>
</g>
</svg>
